{
	"asset":{
		"generator":"Khronos glTF Blender I/O v3.6.27",
		"version":"2.0"
	},
	"extensionsUsed":[
		"KHR_materials_clearcoat",
		"KHR_materials_transmission",
		"KHR_materials_specular",
		"KHR_materials_ior"
	],
	"scene":0,
	"scenes":[
		{
			"name":"Scene",
			"nodes":[
				0
			]
		}
	],
	"nodes":[
		{
			"mesh":0,
			"name":"flower"
		}
	],
	"materials":[
		{
			"alphaMode":"BLEND",
			"doubleSided":true,
			"emissiveFactor":[
				0.09887581614964924,
				0.014550844051701484,
				0.10000000149011612
			],
			"extensions":{
				"KHR_materials_clearcoat":{
					"clearcoatFactor":0.6045454144477844,
					"clearcoatRoughnessFactor":0
				},
				"KHR_materials_transmission":{
					"transmissionFactor":1
				},
				"KHR_materials_specular":{
					"specularColorFactor":[
						1,
						1,
						1
					]
				},
				"KHR_materials_ior":{
					"ior":2
				}
			},
			"name":"flower",
			"pbrMetallicRoughness":{
				"baseColorFactor":[
					1,
					1,
					1,
					0.8999999761581421
				],
				"baseColorTexture":{
					"index":0
				},
				"metallicFactor":0.8854256868362427,
				"roughnessFactor":0
			}
		}
	],
	"meshes":[
		{
			"name":"flower_Model",
			"primitives":[
				{
					"attributes":{
						"POSITION":0,
						"NORMAL":1,
						"TEXCOORD_0":2
					},
					"indices":3,
					"material":0
				}
			]
		}
	],
	"textures":[
		{
			"sampler":0,
			"source":0
		}
	],
	"images":[
		{
			"mimeType":"image/png",
			"name":"flower_color",
			"uri":"flower_Tex/flower_color.png"
		}
	],
	"accessors":[
		{
			"bufferView":0,
			"componentType":5126,
			"count":10499,
			"max":[
				2.8099863529205322,
				2.8099822998046875,
				1.067011833190918
			],
			"min":[
				-2.81546688079834,
				-2.8148193359375,
				-0.13632890582084656
			],
			"type":"VEC3"
		},
		{
			"bufferView":1,
			"componentType":5126,
			"count":10499,
			"type":"VEC3"
		},
		{
			"bufferView":2,
			"componentType":5126,
			"count":10499,
			"type":"VEC2"
		},
		{
			"bufferView":3,
			"componentType":5123,
			"count":10560,
			"type":"SCALAR"
		}
	],
	"bufferViews":[
		{
			"buffer":0,
			"byteLength":125988,
			"byteOffset":0,
			"target":34962
		},
		{
			"buffer":0,
			"byteLength":125988,
			"byteOffset":125988,
			"target":34962
		},
		{
			"buffer":0,
			"byteLength":83992,
			"byteOffset":251976,
			"target":34962
		},
		{
			"buffer":0,
			"byteLength":21120,
			"byteOffset":335968,
			"target":34963
		}
	],
	"samplers":[
		{
			"magFilter":9729,
			"minFilter":9987
		}
	],
	"buffers":[
		{
			"byteLength":357088,
			"uri":"flower_cur.bin"
		}
	]
}
