{
	"asset":{
		"generator":"Khronos glTF Blender I/O v3.6.27",
		"version":"2.0"
	},
	"extensionsUsed":[
		"KHR_materials_specular",
		"KHR_materials_ior"
	],
	"scene":0,
	"scenes":[
		{
			"name":"Scene",
			"nodes":[
				0
			]
		}
	],
	"nodes":[
		{
			"mesh":0,
			"name":"\u7acb\u65b9\u4f53"
		}
	],
	"materials":[
		{
			"doubleSided":true,
			"extensions":{
				"KHR_materials_specular":{
					"specularColorTexture":{
						"index":0
					},
					"specularColorFactor":[
						2.1016739647271825,
						2.1016739647271825,
						2.1016739647271825
					]
				},
				"KHR_materials_ior":{
					"ior":1.4500000476837158
				}
			},
			"name":"neko",
			"normalTexture":{
				"index":1
			},
			"pbrMetallicRoughness":{
				"baseColorTexture":{
					"index":2
				},
				"metallicRoughnessTexture":{
					"index":3
				},
				"roughnessFactor":0.5
			}
		}
	],
	"meshes":[
		{
			"name":"\u7acb\u65b9\u4f53",
			"primitives":[
				{
					"attributes":{
						"POSITION":0,
						"NORMAL":1,
						"TEXCOORD_0":2,
						"TEXCOORD_1":3
					},
					"indices":4,
					"material":0
				}
			]
		}
	],
	"textures":[
		{
			"sampler":0,
			"source":0
		},
		{
			"sampler":0,
			"source":1
		},
		{
			"sampler":0,
			"source":2
		},
		{
			"sampler":0,
			"source":3
		}
	],
	"images":[
		{
			"mimeType":"image/png",
			"name":"Image",
			"uri":"Image.png"
		},
		{
			"mimeType":"image/png",
			"name":"cat_banp",
			"uri":"cat_banp.png"
		},
		{
			"mimeType":"image/png",
			"name":"catt",
			"uri":"catt.png"
		},
		{
			"mimeType":"image/png",
			"name":"suzu_metal",
			"uri":"suzu_metal.png"
		}
	],
	"accessors":[
		{
			"bufferView":0,
			"componentType":5126,
			"count":3596,
			"max":[
				1.4214587211608887,
				3.0408878326416016,
				3.8332810401916504
			],
			"min":[
				-1.4214587211608887,
				-1.754911184310913,
				-2.7003118991851807
			],
			"type":"VEC3"
		},
		{
			"bufferView":1,
			"componentType":5126,
			"count":3596,
			"type":"VEC3"
		},
		{
			"bufferView":2,
			"componentType":5126,
			"count":3596,
			"type":"VEC2"
		},
		{
			"bufferView":3,
			"componentType":5126,
			"count":3596,
			"type":"VEC2"
		},
		{
			"bufferView":4,
			"componentType":5123,
			"count":19776,
			"type":"SCALAR"
		}
	],
	"bufferViews":[
		{
			"buffer":0,
			"byteLength":43152,
			"byteOffset":0,
			"target":34962
		},
		{
			"buffer":0,
			"byteLength":43152,
			"byteOffset":43152,
			"target":34962
		},
		{
			"buffer":0,
			"byteLength":28768,
			"byteOffset":86304,
			"target":34962
		},
		{
			"buffer":0,
			"byteLength":28768,
			"byteOffset":115072,
			"target":34962
		},
		{
			"buffer":0,
			"byteLength":39552,
			"byteOffset":143840,
			"target":34963
		}
	],
	"samplers":[
		{
			"magFilter":9729,
			"minFilter":9987
		}
	],
	"buffers":[
		{
			"byteLength":183392,
			"uri":"neko.bin"
		}
	]
}
