{
	"asset":{
		"generator":"Khronos glTF Blender I/O v3.6.27",
		"version":"2.0"
	},
	"scene":0,
	"scenes":[
		{
			"name":"Scene",
			"nodes":[
				0,
				1
			]
		}
	],
	"nodes":[
		{
			"name":"virus.001"
		},
		{
			"mesh":0,
			"name":"virus.007",
			"rotation":[
				-0.2501869797706604,
				0.1615048199892044,
				-0.0808662474155426,
				0.9512010216712952
			]
		}
	],
	"materials":[
		{
			"doubleSided":true,
			"emissiveFactor":[
				1,
				1,
				1
			],
			"emissiveTexture":{
				"index":0
			},
			"name":"\u30de\u30c6\u30ea\u30a2\u30eb",
			"pbrMetallicRoughness":{
				"baseColorTexture":{
					"index":1
				},
				"metallicFactor":0,
				"metallicRoughnessTexture":{
					"index":2
				}
			}
		}
	],
	"meshes":[
		{
			"name":"Cube.007",
			"primitives":[
				{
					"attributes":{
						"POSITION":0,
						"NORMAL":1,
						"TEXCOORD_0":2,
						"TEXCOORD_1":3
					},
					"indices":4,
					"material":0
				}
			]
		}
	],
	"textures":[
		{
			"sampler":0,
			"source":0
		},
		{
			"sampler":0,
			"source":1
		},
		{
			"sampler":0,
			"source":2
		}
	],
	"images":[
		{
			"mimeType":"image/png",
			"name":"DefaultMaterial_Emissive",
			"uri":"DefaultMaterial_Emissive.png"
		},
		{
			"mimeType":"image/png",
			"name":"DefaultMaterial_Base_color",
			"uri":"DefaultMaterial_Base_color.png"
		},
		{
			"mimeType":"image/png",
			"name":"DefaultMaterial_Roughness",
			"uri":"DefaultMaterial_Roughness.png"
		}
	],
	"accessors":[
		{
			"bufferView":0,
			"componentType":5126,
			"count":2732,
			"max":[
				3.5101163387298584,
				2.7836852073669434,
				3.22297739982605
			],
			"min":[
				-3.9075632095336914,
				-2.942638635635376,
				-3.43522310256958
			],
			"type":"VEC3"
		},
		{
			"bufferView":1,
			"componentType":5126,
			"count":2732,
			"type":"VEC3"
		},
		{
			"bufferView":2,
			"componentType":5126,
			"count":2732,
			"type":"VEC2"
		},
		{
			"bufferView":3,
			"componentType":5126,
			"count":2732,
			"type":"VEC2"
		},
		{
			"bufferView":4,
			"componentType":5123,
			"count":2868,
			"type":"SCALAR"
		}
	],
	"bufferViews":[
		{
			"buffer":0,
			"byteLength":32784,
			"byteOffset":0,
			"target":34962
		},
		{
			"buffer":0,
			"byteLength":32784,
			"byteOffset":32784,
			"target":34962
		},
		{
			"buffer":0,
			"byteLength":21856,
			"byteOffset":65568,
			"target":34962
		},
		{
			"buffer":0,
			"byteLength":21856,
			"byteOffset":87424,
			"target":34962
		},
		{
			"buffer":0,
			"byteLength":5736,
			"byteOffset":109280,
			"target":34963
		}
	],
	"samplers":[
		{
			"magFilter":9729,
			"minFilter":9987
		}
	],
	"buffers":[
		{
			"byteLength":115016,
			"uri":"virus_cur.bin"
		}
	]
}
