{
	"asset":{
		"generator":"Khronos glTF Blender I/O v3.6.27",
		"version":"2.0"
	},
	"extensionsUsed":[
		"KHR_materials_emissive_strength",
		"KHR_materials_specular",
		"KHR_materials_ior"
	],
	"scene":0,
	"scenes":[
		{
			"name":"Scene",
			"nodes":[
				0
			]
		}
	],
	"nodes":[
		{
			"mesh":0,
			"name":"butterfly_Model"
		}
	],
	"materials":[
		{
			"doubleSided":true,
			"emissiveFactor":[
				1,
				1,
				1
			],
			"emissiveTexture":{
				"index":0
			},
			"extensions":{
				"KHR_materials_emissive_strength":{
					"emissiveStrength":5.799999713897705
				},
				"KHR_materials_specular":{
					"specularColorTexture":{
						"index":1
					}
				},
				"KHR_materials_ior":{
					"ior":1.4500000476837158
				}
			},
			"name":"\u30de\u30c6\u30ea\u30a2\u30eb",
			"normalTexture":{
				"index":2,
				"scale":5
			},
			"pbrMetallicRoughness":{
				"baseColorTexture":{
					"index":3
				},
				"metallicRoughnessTexture":{
					"index":4
				},
				"roughnessFactor":0.12272727489471436
			}
		}
	],
	"meshes":[
		{
			"name":"\u7acb\u65b9\u4f53",
			"primitives":[
				{
					"attributes":{
						"POSITION":0,
						"NORMAL":1,
						"TEXCOORD_0":2
					},
					"indices":3,
					"material":0
				}
			]
		}
	],
	"textures":[
		{
			"sampler":0,
			"source":0
		},
		{
			"sampler":0,
			"source":1
		},
		{
			"sampler":0,
			"source":2
		},
		{
			"sampler":0,
			"source":3
		},
		{
			"sampler":0,
			"source":4
		}
	],
	"images":[
		{
			"mimeType":"image/png",
			"name":"DefaultMaterial_Emissive",
			"uri":"DefaultMaterial_Emissive.png"
		},
		{
			"mimeType":"image/png",
			"name":"Image",
			"uri":"Image.png"
		},
		{
			"mimeType":"image/png",
			"name":"DefaultMaterial_Normal_OpenGL",
			"uri":"DefaultMaterial_Normal_OpenGL.png"
		},
		{
			"mimeType":"image/png",
			"name":"DefaultMaterial_Base_color",
			"uri":"DefaultMaterial_Base_color.png"
		},
		{
			"mimeType":"image/png",
			"name":"DefaultMaterial_Metallic",
			"uri":"DefaultMaterial_Metallic.png"
		}
	],
	"accessors":[
		{
			"bufferView":0,
			"componentType":5126,
			"count":1924,
			"max":[
				9.013327598571777,
				7.2385969161987305,
				1.4709291458129883
			],
			"min":[
				-9.013327598571777,
				-7.3629889488220215,
				-2.3698253631591797
			],
			"type":"VEC3"
		},
		{
			"bufferView":1,
			"componentType":5126,
			"count":1924,
			"type":"VEC3"
		},
		{
			"bufferView":2,
			"componentType":5126,
			"count":1924,
			"type":"VEC2"
		},
		{
			"bufferView":3,
			"componentType":5123,
			"count":3216,
			"type":"SCALAR"
		}
	],
	"bufferViews":[
		{
			"buffer":0,
			"byteLength":23088,
			"byteOffset":0,
			"target":34962
		},
		{
			"buffer":0,
			"byteLength":23088,
			"byteOffset":23088,
			"target":34962
		},
		{
			"buffer":0,
			"byteLength":15392,
			"byteOffset":46176,
			"target":34962
		},
		{
			"buffer":0,
			"byteLength":6432,
			"byteOffset":61568,
			"target":34963
		}
	],
	"samplers":[
		{
			"magFilter":9729,
			"minFilter":9987
		}
	],
	"buffers":[
		{
			"byteLength":68000,
			"uri":"butterfly_test.bin"
		}
	]
}
