{
	"asset":{
		"generator":"Khronos glTF Blender I/O v3.6.27",
		"version":"2.0"
	},
	"scene":0,
	"scenes":[
		{
			"name":"Scene",
			"nodes":[
				0
			]
		}
	],
	"nodes":[
		{
			"mesh":0,
			"name":"virus"
		}
	],
	"meshes":[
		{
			"name":"Cube",
			"primitives":[
				{
					"attributes":{
						"POSITION":0,
						"NORMAL":1,
						"TEXCOORD_0":2,
						"TEXCOORD_1":3
					},
					"indices":4
				}
			]
		}
	],
	"accessors":[
		{
			"bufferView":0,
			"componentType":5126,
			"count":3308,
			"max":[
				3.4229304790496826,
				3.7617924213409424,
				3.5248911380767822
			],
			"min":[
				-3.7251651287078857,
				-3.4081931114196777,
				-3.2560176849365234
			],
			"type":"VEC3"
		},
		{
			"bufferView":1,
			"componentType":5126,
			"count":3308,
			"type":"VEC3"
		},
		{
			"bufferView":2,
			"componentType":5126,
			"count":3308,
			"type":"VEC2"
		},
		{
			"bufferView":3,
			"componentType":5126,
			"count":3308,
			"type":"VEC2"
		},
		{
			"bufferView":4,
			"componentType":5123,
			"count":3492,
			"type":"SCALAR"
		}
	],
	"bufferViews":[
		{
			"buffer":0,
			"byteLength":39696,
			"byteOffset":0,
			"target":34962
		},
		{
			"buffer":0,
			"byteLength":39696,
			"byteOffset":39696,
			"target":34962
		},
		{
			"buffer":0,
			"byteLength":26464,
			"byteOffset":79392,
			"target":34962
		},
		{
			"buffer":0,
			"byteLength":26464,
			"byteOffset":105856,
			"target":34962
		},
		{
			"buffer":0,
			"byteLength":6984,
			"byteOffset":132320,
			"target":34963
		}
	],
	"buffers":[
		{
			"byteLength":139304,
			"uri":"virus_cur.bin"
		}
	]
}
