{
	"asset":{
		"generator":"Khronos glTF Blender I/O v3.6.27",
		"version":"2.0"
	},
	"extensionsUsed":[
		"KHR_materials_transmission",
		"KHR_materials_specular",
		"KHR_materials_ior"
	],
	"scene":0,
	"scenes":[
		{
			"name":"Scene",
			"nodes":[
				0
			]
		}
	],
	"nodes":[
		{
			"mesh":0,
			"name":"bud"
		}
	],
	"materials":[
		{
			"alphaMode":"BLEND",
			"doubleSided":true,
			"emissiveFactor":[
				1,
				1,
				1
			],
			"emissiveTexture":{
				"index":0
			},
			"extensions":{
				"KHR_materials_transmission":{
					"transmissionFactor":0.9318181872367859
				},
				"KHR_materials_specular":{
					"specularColorFactor":[
						0.9419182307712924,
						0.9419182307712924,
						0.9419182307712924
					]
				},
				"KHR_materials_ior":{
					"ior":2
				}
			},
			"name":"\u30de\u30c6\u30ea\u30a2\u30eb",
			"pbrMetallicRoughness":{
				"baseColorFactor":[
					1,
					1,
					1,
					0.7545454502105713
				],
				"baseColorTexture":{
					"index":1
				},
				"metallicRoughnessTexture":{
					"index":2
				}
			}
		}
	],
	"meshes":[
		{
			"name":"\u7acb\u65b9\u4f53.002",
			"primitives":[
				{
					"attributes":{
						"POSITION":0,
						"NORMAL":1,
						"TEXCOORD_0":2
					},
					"indices":3,
					"material":0
				}
			]
		}
	],
	"textures":[
		{
			"sampler":0,
			"source":0
		},
		{
			"sampler":0,
			"source":1
		},
		{
			"sampler":0,
			"source":2
		}
	],
	"images":[
		{
			"mimeType":"image/png",
			"name":"DefaultMaterial_Emissive",
			"uri":"DefaultMaterial_Emissive.png"
		},
		{
			"mimeType":"image/png",
			"name":"DefaultMaterial_Base_color",
			"uri":"DefaultMaterial_Base_color.png"
		},
		{
			"mimeType":"image/png",
			"name":"DefaultMaterial_Metallic-DefaultMaterial_Roughness",
			"uri":"DefaultMaterial_Metallic-DefaultMaterial_Roughness.png"
		}
	],
	"accessors":[
		{
			"bufferView":0,
			"componentType":5126,
			"count":6600,
			"max":[
				2.175015449523926,
				2.022831439971924,
				1.7320505380630493
			],
			"min":[
				-2.2445430755615234,
				-1.9909337759017944,
				-3.14634108543396
			],
			"type":"VEC3"
		},
		{
			"bufferView":1,
			"componentType":5126,
			"count":6600,
			"type":"VEC3"
		},
		{
			"bufferView":2,
			"componentType":5126,
			"count":6600,
			"type":"VEC2"
		},
		{
			"bufferView":3,
			"componentType":5123,
			"count":6600,
			"type":"SCALAR"
		}
	],
	"bufferViews":[
		{
			"buffer":0,
			"byteLength":79200,
			"byteOffset":0,
			"target":34962
		},
		{
			"buffer":0,
			"byteLength":79200,
			"byteOffset":79200,
			"target":34962
		},
		{
			"buffer":0,
			"byteLength":52800,
			"byteOffset":158400,
			"target":34962
		},
		{
			"buffer":0,
			"byteLength":13200,
			"byteOffset":211200,
			"target":34963
		}
	],
	"samplers":[
		{
			"magFilter":9729,
			"minFilter":9987
		}
	],
	"buffers":[
		{
			"byteLength":224400,
			"uri":"bud_cur.bin"
		}
	]
}
